<?xml version="1.0" encoding="utf-8"?>
<!-- Generator: Adobe Illustrator 26.0.3, SVG Export Plug-In . SVG Version: 6.00 Build 0)  -->
<svg version="1.1" id="Layer_1" xmlns="http://www.w3.org/2000/svg" xmlns:xlink="http://www.w3.org/1999/xlink" x="0px" y="0px"
	 viewBox="0 0 327.06 326.88" style="enable-background:new 0 0 327.06 326.88;" xml:space="preserve">
<style type="text/css">
	.st0{fill:#FD7D00;}
</style>
<g>
	<path class="st0" d="M327.06,24.27c0,74.74,0,149.47,0,224.21c-0.9,2.81-1.47,5.8-2.77,8.41c-5.47,10.93-14.7,15.7-26.69,15.7
		c-38.75-0.01-77.49-0.01-116.24,0c-1.33,0-2.67,0.11-4.01,0.17c0,9.14,0,17.91,0,26.94c1.6,0,2.97-0.01,4.34,0
		c13.4,0.16,26.83-0.09,40.2,0.59c12.75,0.65,23.62,13.58,23.12,26.58c-54.34,0-108.68,0-163.03,0
		c-0.05-13.75,10.57-25.97,23.9-26.62c13.27-0.64,26.59-0.38,39.89-0.51c1.26-0.01,2.51,0,3.93,0c0-9.19,0-18.04,0-27.16
		c-1.62,0-2.99,0-4.36,0c-38.53,0-77.07,0.01-115.6-0.01c-4.92,0-9.76-0.51-14.24-2.83C5.03,264.3,0.05,255.52,0.03,243.87
		c-0.05-31.3-0.02-62.59-0.02-93.89c0-40.24,0.01-80.47-0.01-120.71C0,21.9,1.84,15.25,6.73,9.52C11.39,4.06,17.49,1.43,24.28,0
		c92.83,0,185.67,0,278.5,0c4.85,1.17,9.55,2.58,13.6,5.74C322.49,10.5,325.58,16.9,327.06,24.27z M139.49,197.55
		c6.36,0,12.29-0.09,18.22,0.05c2.13,0.05,2.88-0.69,3.33-2.75c7.99-36.19,16.07-72.36,24.11-108.53c0.82-3.67,1.54-7.36,2.38-11.4
		c-6.29,0-12.02,0.1-17.75-0.05c-2.32-0.06-3.27,0.6-3.79,2.99c-7.3,33.19-14.73,66.35-22.11,99.51
		C142.42,183.95,141.01,190.56,139.49,197.55z M110.24,103.76c-4.91-4.9-9.66-9.63-14.49-14.45c-11.71,11.73-23.82,23.83-35.9,35.96
		c-7.19,7.22-7.17,14.76,0.05,22c11.42,11.44,22.86,22.87,34.29,34.29c0.74,0.74,1.53,1.44,2.03,1.91
		c4.83-4.83,9.53-9.53,14.38-14.38c-10.77-10.74-21.74-21.68-32.92-32.83C88.86,125.12,99.82,114.17,110.24,103.76z M230.9,89.18
		c-4.81,4.81-9.52,9.51-14.54,14.53c10.77,10.68,21.77,21.6,33.09,32.82c-11.13,11.1-22.11,22.05-32.79,32.71
		c4.72,4.72,9.41,9.42,13.75,13.76c12.92-12.66,26.22-25.36,39.1-38.47c4.71-4.79,4.15-12.58-0.86-17.68
		C256.15,114.11,243.39,101.61,230.9,89.18z"/>
</g>
</svg>
