<?xml version="1.0" encoding="utf-8"?>
<!-- Generator: Adobe Illustrator 26.0.3, SVG Export Plug-In . SVG Version: 6.00 Build 0)  -->
<svg version="1.1" id="Layer_1" xmlns="http://www.w3.org/2000/svg" xmlns:xlink="http://www.w3.org/1999/xlink" x="0px" y="0px"
	 viewBox="0 0 384 384" style="enable-background:new 0 0 384 384;" xml:space="preserve">
<style type="text/css">
	.st0{fill:#FD7D00;}
</style>
<g>
	<path class="st0" d="M0,238.5c0-60,0-120,0-180c0.26-1.07,0.57-2.13,0.76-3.22C4.77,32.25,16.5,14.82,38.04,4.88
		C43.05,2.57,48.66,1.59,54,0c92,0,184,0,276,0c0.31,0.19,0.6,0.49,0.94,0.55c26.7,4.7,42.59,21.21,50.47,46.36
		c1.18,3.77,1.74,7.73,2.59,11.6c0,60,0,120,0,180c-0.26,1.07-0.6,2.13-0.75,3.21c-4.55,31.13-30.03,56.3-62.73,55.46
		c-23.71-0.61-47.45-0.03-71.17-0.21c-3.58-0.03-5.47,0.93-7.16,4.21c-12.64,24.49-25.56,48.83-38.26,73.29
		c-2.13,4.1-4.62,7.59-8.92,9.53c-2,0-4,0-6,0c-4.31-1.93-6.8-5.44-8.92-9.54c-12.7-24.45-25.62-48.79-38.26-73.28
		c-1.69-3.28-3.58-4.24-7.16-4.21c-23.97,0.17-47.94,0.1-71.92,0.07c-2.99,0-6.03,0.04-8.96-0.44
		c-26.39-4.3-42.56-20.26-50.76-45.04C1.62,247.34,0.99,242.86,0,238.5z M222.18,125.16c20.86-23.9,11.42-51.26-3.12-63.36
		c-16.94-14.09-41.61-13.38-57.7,2.05c-15.16,14.53-19.31,40.97-0.83,61.2c-0.89,0.5-1.73,1.01-2.61,1.45
		c-26.47,13.49-40.48,35.1-41.9,64.73c-0.58,12.08,8.35,21.55,20.47,21.6c36.61,0.15,73.21,0.16,109.82-0.01
		c11.82-0.06,20.61-9.25,20.2-21.04c-1.01-29.38-14.8-50.9-40.65-64.76C224.66,126.38,223.44,125.8,222.18,125.16z"/>
	<path class="st0" d="M243.96,190.02c-35.16,0-69.94,0-105.21,0c1.11-16.9,8.38-30.24,22.3-39.21c18.3-11.79,37.84-12.24,56.9-2.17
		C234.08,157.18,242.35,171.5,243.96,190.02z"/>
	<path class="st0" d="M211.74,94.91c-0.1,11.22-9.53,20.43-20.72,20.22c-11.17-0.2-20.16-9.3-20.15-20.4
		c0-11.24,9.28-20.48,20.51-20.43C202.59,74.35,211.84,83.71,211.74,94.91z"/>
</g>
</svg>
