<?xml version="1.0" encoding="utf-8"?>
<!-- Generator: Adobe Illustrator 26.0.3, SVG Export Plug-In . SVG Version: 6.00 Build 0)  -->
<svg version="1.1" id="Layer_1" xmlns="http://www.w3.org/2000/svg" xmlns:xlink="http://www.w3.org/1999/xlink" x="0px" y="0px"
	 viewBox="0 0 384 384" style="enable-background:new 0 0 384 384;" xml:space="preserve">
<style type="text/css">
	.st0{fill:#FD7D00;}
</style>
<g>
	<path class="st0" d="M384,36c0,63.75,0,127.5,0,191.25c-0.18,0.33-0.44,0.63-0.52,0.98c-4.87,22.79-20.16,35.2-43.48,35.2
		c-64.6,0.01-129.2,0-193.8,0c-1.46,0-2.92,0-4.78,0c0-2.05,0.07-3.65-0.01-5.24c-0.33-6.23-0.53-12.47-1.15-18.67
		c-0.26-2.62,0.31-4.35,2.19-6.22c22.51-22.38,44.93-44.84,67.36-67.29c1.06-1.06,2.16-2.1,3.07-3.28c2.9-3.77,3.22-8.62,0.77-12.64
		c-2.53-4.16-6.46-6.18-11.11-5.18c-2.73,0.59-5.59,2.28-7.6,4.28c-20.26,20.03-40.36,40.22-60.51,60.36
		c-0.95,0.95-1.94,1.84-3.17,3.01c-0.93-1.49-1.52-2.92-2.53-3.93c-3.2-3.2-2.09-5.8,0.01-9.33c16.56-27.73,17.64-56.33,1.48-84.26
		c-16.14-27.88-41.29-41.41-73.7-40.98c-2.69,0.04-5.38,0-7.95,0c0-12.62-0.71-25.13,0.19-37.53c1.02-14.03,8.72-24.56,21-31.29
		C74.14,2.84,79.23,1.71,84,0c88,0,176,0,264,0c0.56,0.23,1.1,0.55,1.68,0.66c14.38,2.75,24.65,10.82,30.7,24.08
		C382.01,28.3,382.82,32.24,384,36z"/>
	<path class="st0" d="M0,246c1.67-5.85,3.19-11.75,5.09-17.52c0.88-2.67,2.53-5.1,3.99-7.94c15.1,11.27,31.7,17.2,50.27,17.23
		c18.59,0.03,35.23-5.89,50.32-17.1c5.05,7.86,8.43,16.11,8.7,25.03c0.57,18.21,0.5,36.45,0.46,54.68
		c-0.01,6.12-3.5,9.76-9.63,11.15c-0.71,0.16-1.41,0.37-2.38,0.63c0,4.45,0,8.8,0,13.15c0,14.74-0.21,29.48,0.09,44.2
		c0.14,6.93-2.13,11.83-8.67,14.48c-26,0-52,0-78,0c-6.41-3.04-8.47-8.14-8.33-15.11c0.33-16.96,0.11-33.94,0.11-50.9
		c0-1.97,0-3.94,0-6.15C5.82,311.59,2.1,308.33,0,303C0,284,0,265,0,246z"/>
	<path class="st0" d="M0,149.25c0.6-2.66,1.13-5.34,1.8-7.97c7.02-27.49,32.44-46.23,60.63-44.74
		c28.51,1.51,51.77,22.71,55.91,50.96c4.62,31.54-17.86,62.3-48.95,66.97c-33.26,5-63.62-16.81-68.66-49.29
		c-0.13-0.83-0.48-1.62-0.73-2.43C0,158.25,0,153.75,0,149.25z"/>
</g>
</svg>
