<?xml version="1.0" encoding="utf-8"?>
<!-- Generator: Adobe Illustrator 26.0.3, SVG Export Plug-In . SVG Version: 6.00 Build 0)  -->
<svg version="1.1" id="Layer_1" xmlns="http://www.w3.org/2000/svg" xmlns:xlink="http://www.w3.org/1999/xlink" x="0px" y="0px"
	 viewBox="0 0 384 384" style="enable-background:new 0 0 384 384;" xml:space="preserve">
<style type="text/css">
	.st0{fill:#FD7D00;}
</style>
<g>
	<path class="st0" d="M180,0c8,0,16,0,24,0c0.96,0.21,1.91,0.54,2.89,0.61c32.12,2.46,61.88,12.17,88.78,29.89
		c46.69,30.76,75.37,73.66,85.45,128.78c1.25,6.85,1.94,13.81,2.89,20.72c0,8,0,16,0,24c-0.21,0.97-0.49,1.92-0.63,2.9
		c-1.31,8.88-2.14,17.86-3.96,26.63c-15.46,74.29-78.9,135.13-153.59,147.47c-7.24,1.2-14.54,2.01-21.81,3.01c-8,0-16,0-24,0
		c-2.46-0.31-4.91-0.65-7.37-0.91c-34.62-3.78-66.23-15.5-94.17-36.39c-40.88-30.56-66.23-70.95-75.48-121.24
		C1.68,218.36,0.98,211.15,0,204c0-8,0-16,0-24c0.57-4.69,1.06-9.39,1.73-14.07C7.75,124.07,25.36,87.82,55,57.65
		C83.76,28.38,118.42,10,158.92,2.95C165.91,1.73,172.97,0.97,180,0z M178.35,137.02c0,17.49,0.17,34.98-0.09,52.46
		c-0.09,6.5,2.31,11.12,7.35,15.05c12.31,9.59,24.42,19.45,36.61,29.2c9.75,7.8,19.45,15.67,29.28,23.37
		c7.85,6.15,18.28,3.57,21.77-5.22c2.36-5.95,0.69-11.83-4.87-16.29c-19.86-15.96-39.73-31.9-59.69-47.73
		c-2.31-1.83-3.13-3.7-3.12-6.59c0.11-23.73,0.06-47.47,0.06-71.2c0-9.37,0.08-18.74-0.06-28.11c-0.1-6.57-4.61-11.83-10.79-13.05
		c-8.84-1.73-16.37,4.46-16.42,13.76C178.29,100.8,178.36,118.91,178.35,137.02z"/>
</g>
</svg>
