<?xml version="1.0" encoding="utf-8"?>
<!-- Generator: Adobe Illustrator 25.4.1, SVG Export Plug-In . SVG Version: 6.00 Build 0)  -->
<svg version="1.1" id="Layer_1" xmlns="http://www.w3.org/2000/svg" xmlns:xlink="http://www.w3.org/1999/xlink" x="0px" y="0px"
	 viewBox="0 0 168.9 173.4" style="enable-background:new 0 0 168.9 173.4;" xml:space="preserve">
<style type="text/css">
	.st0{fill:#1955CC;}
	.st1{fill:#FD7D00;}
</style>
<path class="st0" d="M92,145.7c-2.1-2.9-4.2-4.8-6.4-6.3c-8.1,8.8-20.2,14.3-33.8,14.3c-24.4,0-44.2-6.9-44.2-29.3
	c0-19.8,15.6-47.5,36.1-50.9c-0.4-2.4-0.6-4.8-0.6-7.3c0-26,21.1-47.1,47.1-47.1c26,0,47.1,21.1,47.1,47.1c0,3.9-0.5,7.7-1.4,11.3
	c9.4,6.9,16.4,16.7,16.4,29.2C174.1,154.6,133.3,161.3,92,145.7z"/>
<path class="st1" d="M47.9,168.5c1.2,0.7,4.6,0.3,5.9,0.5c4.1,0.6,8,1.9,11.8,3.6c5,2.3,8.3-1.4,6.2-6.3c-2.5-5.7-11.1-6.8-16.6-7.3
	c-2.4-0.2-5.6-0.2-7.4,1.8c-1.3,1.5-1.8,6.1,0,7.5C47.8,168.4,47.9,168.5,47.9,168.5z"/>
<path class="st1" d="M130.8,34.2c2.7,1.6,7.2,0.1,9.9-2.4c1.5-1.4,2.5-3.6,4-5.1c2-1.9,4.2-2.3,1.8-5.3c-2.8-3.5-8.4-2.6-11.7-0.5
	c-3.1,1.9-6.4,4.9-6.2,8.8C128.6,32.1,129.5,33.5,130.8,34.2z"/>
<path class="st1" d="M165.6,129.9c0.2-0.8,0.4-1.6,0.5-2.5c0.1-0.8,0.2-1.7,0.1-2.5c0-0.4,0-0.8-0.1-1.3c-0.1-0.4-0.1-0.8-0.2-1.3
	c-0.3-1.7-0.7-3.3-1.2-4.9c-1.1-3.2-2.6-6.2-4.3-9.1c-3.4-5.8-7.6-11-12.1-15.9c-0.8-0.9-1.6-1.7-2.4-2.5c0.5-0.4,1-0.9,1.4-1.3
	c4-3.7,7.8-7.6,11.3-11.8c0.9-1.1,1.7-2.2,2.5-3.3c0.8-1.1,1.6-2.2,2.3-3.4c1.4-2.3,2.7-4.8,3.7-7.3c1-2.6,1.7-5.3,1.7-8.1
	c0-1.4-0.2-2.8-0.6-4.2c-0.4-1.3-1-2.6-1.9-3.8c-0.8-1.1-1.9-2.1-3-2.9c-1.1-0.8-2.4-1.5-3.6-2c-2.5-1.1-5.2-1.7-7.9-2
	c-5.4-0.7-10.9-0.4-16.2,0.3c2.7-0.2,5.4-0.4,8.1-0.3c2.7,0,5.4,0.2,8,0.6c2.6,0.4,5.3,1.1,7.7,2.2c1.2,0.6,2.3,1.2,3.4,2
	c1,0.8,1.9,1.7,2.7,2.8c0.7,1.1,1.3,2.2,1.6,3.5c0.4,1.2,0.5,2.5,0.5,3.8c0,2.6-0.7,5.2-1.7,7.6c-2,4.9-5.1,9.3-8.5,13.4
	c-3.4,4.1-7.2,7.9-11.2,11.5c-0.5,0.4-1,0.9-1.5,1.3c-3.4-3.4-7-6.7-10.7-9.8c-2.6-2.2-5.2-4.3-7.9-6.3c0-0.8-0.1-1.6-0.1-2.5
	c-0.3-5.5-0.8-10.9-1.6-16.4c-0.8-5.4-1.8-10.8-3.2-16.2c-0.7-2.7-1.4-5.3-2.3-8c-0.9-2.6-1.8-5.2-2.9-7.8c-0.5-1.3-1.1-2.6-1.7-3.8
	c-0.6-1.3-1.3-2.5-2-3.7c-1.4-2.4-3-4.8-4.9-7c-1-1.1-2-2.1-3.1-3.1c-1.1-0.9-2.4-1.8-3.7-2.5c-1.3-0.7-2.8-1.2-4.3-1.5
	c-1.5-0.3-3.1-0.3-4.6-0.1c-1.5,0.2-3,0.7-4.3,1.4c-1.3,0.7-2.5,1.5-3.6,2.4c-2.2,1.8-4,4-5.6,6.3c-3.1,4.6-5.3,9.6-7.1,14.7
	c0.6-1.2,1.2-2.4,1.9-3.6c0.6-1.2,1.3-2.4,2-3.5c1.4-2.3,2.9-4.5,4.6-6.5c1.7-2,3.6-3.9,5.7-5.3c1.1-0.7,2.1-1.3,3.3-1.8
	c1.1-0.5,2.3-0.7,3.5-0.8c1.2-0.1,2.3,0,3.5,0.3c1.1,0.3,2.2,0.8,3.2,1.4c2,1.2,3.8,3,5.4,5c1.5,2,2.9,4.2,4.1,6.5
	c0.6,1.2,1.1,2.3,1.7,3.5c0.5,1.2,1,2.4,1.5,3.6c0.9,2.5,1.7,5,2.5,7.5c0.7,2.5,1.4,5.1,1.9,7.7c1.1,5.2,2,10.4,2.6,15.7
	c0.5,4.4,0.9,8.8,1.2,13.2c-0.5-0.3-0.9-0.6-1.4-1C107.2,59,95.7,52.4,83.5,46.9c-6.1-2.7-12.3-5.2-18.6-7.2
	c-6.4-2-12.9-3.6-19.5-4.4C42,35,38.7,34.8,35.3,35c-1.7,0.1-3.4,0.3-5,0.7c-1.7,0.4-3.3,0.8-4.9,1.6c-0.8,0.3-1.5,0.8-2.3,1.2
	c-0.7,0.5-1.4,1-2,1.6c-0.6,0.6-1.2,1.3-1.7,2c-0.5,0.7-0.9,1.5-1.3,2.3c-0.3,0.8-0.6,1.6-0.8,2.5c-0.2,0.8-0.3,1.7-0.3,2.6
	c0,0.9,0,1.7,0.1,2.6c0.1,0.9,0.2,1.7,0.4,2.5c0.7,3.3,2,6.5,3.5,9.4c1.5,3,3.3,5.8,5.3,8.5c2,2.7,4.1,5.3,6.3,7.8l0.8,0.9l0.8,0.9
	l1.7,1.8l1.7,1.8l0.9,0.9l0.9,0.9c4.7,4.7,9.7,9.1,15,13.1l2,1.5c0.7,0.5,1.4,1,2,1.4c1.4,0.9,2.7,1.9,4.1,2.8l2.1,1.3
	c0.7,0.4,1.4,0.9,2.1,1.3l4.3,2.5l-4.3-2.6c-0.7-0.4-1.4-0.9-2.1-1.3l-2.1-1.4c-1.4-0.9-2.7-1.9-4.1-2.9c-0.7-0.5-1.4-1-2-1.5
	l-2-1.5c-5.2-4.1-10.1-8.5-14.7-13.3l-0.9-0.9l-0.9-0.9l-1.7-1.8l-1.7-1.8l-0.8-0.9l-0.8-0.9c-2.2-2.5-4.2-5.1-6.1-7.8
	c-1.9-2.7-3.6-5.5-5.1-8.4c-1.5-2.9-2.7-6-3.3-9.2c-0.2-0.8-0.3-1.6-0.3-2.4c-0.1-0.8-0.1-1.6,0-2.4c0-0.8,0.1-1.6,0.3-2.4
	c0.2-0.8,0.4-1.5,0.7-2.2c0.3-0.7,0.7-1.4,1.2-2c0.5-0.6,1-1.2,1.5-1.8c0.6-0.5,1.2-1,1.9-1.4c0.7-0.4,1.4-0.8,2.1-1.1
	c2.9-1.3,6.2-1.9,9.4-2.1c3.3-0.2,6.5,0,9.8,0.4c6.5,0.8,13,2.4,19.2,4.3c6.3,2,12.4,4.4,18.5,7.1c12,5.4,23.6,12,34.4,19.5
	c0.8,0.5,1.5,1.1,2.3,1.6c0,0.3,0,0.6,0,0.9c0.2,5.3,0.3,10.6,0.2,16c-0.1,5.3-0.4,10.7-0.9,16c-0.1,1.7-0.3,3.4-0.5,5.2
	c-4,2.4-8.1,4.7-12.3,6.9c-9.5,5-19.4,9.4-29.5,12.9c-10.1,3.5-20.6,6.3-31.2,7.4c-2.7,0.3-5.3,0.4-8,0.4c-2.7,0-5.3-0.2-7.9-0.7
	c-2.6-0.5-5.2-1.2-7.5-2.4c-1.1-0.6-2.2-1.4-3.2-2.2c-0.9-0.9-1.7-1.9-2.4-3c-0.6-1.1-1-2.4-1.3-3.7c-0.2-1.3-0.3-2.6-0.1-3.9
	c0.2-2.6,1.1-5.2,2.1-7.7c1.1-2.5,2.4-4.8,3.9-7.1c0.7-1.1,1.5-2.2,2.3-3.3c0.8-1.1,1.6-2.1,2.5-3.2c-3.6,4-6.9,8.4-9.2,13.3
	c-1.2,2.5-2.1,5.1-2.4,7.8c-0.2,1.4-0.2,2.8,0,4.2c0.2,1.4,0.6,2.8,1.2,4c0.6,1.3,1.5,2.4,2.5,3.4c1,1,2.2,1.8,3.4,2.5
	c2.4,1.4,5.1,2.2,7.8,2.8c2.7,0.5,5.4,0.8,8.2,0.9c2.7,0.1,5.5,0,8.2-0.3c5.4-0.5,10.8-1.4,16.1-2.6c5.3-1.2,10.5-2.8,15.7-4.5
	c10.3-3.5,20.3-7.9,29.9-12.9c3.7-1.9,7.4-4,10.9-6.1c-0.3,2.6-0.7,5.3-1.1,7.9c-1.7,10.5-4.2,20.9-8.1,30.6
	c-2,4.8-4.4,9.6-7.5,13.6c-1.6,2-3.3,3.8-5.3,5.2c-1,0.7-2.1,1.3-3.2,1.7c-1.1,0.4-2.3,0.6-3.4,0.6c-1.2,0-2.4-0.1-3.5-0.5
	c-1.2-0.4-2.3-0.9-3.3-1.6c-2.1-1.3-4-3.2-5.7-5.2c-1.7-2-3.2-4.3-4.5-6.6c-0.7-1.2-1.3-2.3-1.9-3.5c-0.6-1.2-1.2-2.4-1.8-3.7
	c0.8,2.6,1.7,5.1,2.8,7.6c1.1,2.5,2.4,4.9,4,7.2c1.6,2.3,3.4,4.4,5.7,6.2c1.1,0.9,2.4,1.6,3.8,2.2c1.4,0.6,2.9,0.9,4.4,1
	c1.5,0.1,3.1-0.1,4.5-0.5c1.5-0.4,2.8-1,4.1-1.8c2.6-1.5,4.7-3.5,6.6-5.7c1.9-2.1,3.5-4.5,5-6.9c1.5-2.4,2.7-4.9,3.9-7.4
	c1.2-2.5,2.2-5.1,3.2-7.7c0.9-2.6,1.8-5.2,2.6-7.9c1.6-5.3,2.8-10.7,3.8-16.1c0.8-4.4,1.4-8.8,1.9-13.2c3.4-2.2,6.7-4.5,9.9-6.8
	c3.5-2.6,6.9-5.4,10.3-8.3c0.8,0.8,1.6,1.7,2.4,2.5c4.5,4.8,8.7,10,12.1,15.6c1.7,2.8,3.2,5.8,4.3,8.9c1.1,3.1,1.7,6.4,1.4,9.6
	c-0.1,0.8-0.3,1.6-0.5,2.4c-0.2,0.8-0.5,1.5-0.9,2.2c-0.8,1.4-1.8,2.7-3.1,3.7c-1.3,1-2.7,1.8-4.2,2.4c-1.5,0.6-3.1,1-4.7,1.3
	c-3.2,0.6-6.6,0.7-9.9,0.5c-3.3-0.2-6.6-0.6-9.9-1.1c3.3,0.7,6.5,1.1,9.9,1.4c3.3,0.2,6.7,0.2,10-0.4c1.6-0.3,3.3-0.7,4.8-1.3
	c1.6-0.6,3.1-1.4,4.4-2.4c1.3-1,2.5-2.3,3.3-3.8C165,131.5,165.3,130.7,165.6,129.9z M133.6,97.3c-2.7,2-5.5,3.9-8.3,5.8
	c0-0.1,0-0.2,0-0.3c0.5-5.5,0.8-10.9,1-16.4c0.1-4.1,0-8.1-0.1-12.2c2.4,1.8,4.7,3.6,6.9,5.5c3.6,3.1,7.2,6.3,10.6,9.6
	C140.5,92.2,137.1,94.8,133.6,97.3z"/>
</svg>
